<svg version="1.1" xmlns="http://www.w3.org/2000/svg" xmlns:xlink="http://www.w3.org/1999/xlink" viewBox="0 0 172 172"><g fill="none" fill-rule="none" stroke="none" stroke-width="1" stroke-linecap="butt" stroke-linejoin="miter" stroke-miterlimit="10" stroke-dasharray="" stroke-dashoffset="0" font-family="none" font-weight="none" font-size="none" text-anchor="none" style="mix-blend-mode: normal"><path d="M0,172v-172h172v172z" fill="none" fill-rule="nonzero"></path><g><path d="M171.99928,86.00072c0,-47.49649 -38.50351,-86 -86,-86c-47.49649,0 -86,38.50351 -86,86c0,47.49649 38.50351,86 86,86c47.49649,0 86,-38.50351 86,-86z" fill="#09896b" fill-rule="nonzero"></path><g fill="#ffffff"><path d="M37.62489,73.00719c0,0 30.43949,-22.84339 48.37513,-22.84339c17.93562,0 48.37511,22.84339 48.37511,22.84339c0,0 -30.43949,22.84411 -48.37511,22.84411c-17.93563,0 -48.37513,-22.84411 -48.37513,-22.84411z" fill-rule="nonzero"></path><path d="M59.12536,90.21938v23.85856c0,0 18.95404,7.95988 28.93936,7.75456c8.66199,-0.17917 24.81064,-7.75456 24.81064,-7.75456v-23.85856c-8.75982,4.6756 -18.41475,8.76937 -26.875,8.76937c-8.46061,0 -18.11554,-4.09377 -26.875,-8.76937z" fill-rule="evenodd"></path><path d="M123.59701,84.14634c-0.98681,0.01545 -1.77534,0.82595 -1.76367,1.81281v18.82647c-0.00914,0.64614 0.33034,1.24715 0.88844,1.57288c0.5581,0.32574 1.24836,0.32574 1.80646,0c0.5581,-0.32574 0.89758,-0.92674 0.88844,-1.57288v-18.82647c0.00572,-0.48371 -0.18438,-0.94918 -0.52709,-1.29059c-0.3427,-0.34141 -0.80889,-0.52976 -1.29257,-0.52221z" fill-rule="evenodd"></path></g></g></g></svg>